<svg xmlns="http://www.w3.org/2000/svg" viewBox="0 0 320 120" role="img" aria-labelledby="title desc">
  <title id="title">ShepherdRoute logo</title>
  <desc id="desc">A green route marker with a gold center beside the ShepherdRoute wordmark.</desc>
  <rect width="320" height="120" rx="24" fill="none"/>
  <g transform="translate(26 20)">
    <rect width="80" height="80" rx="20" fill="#f7f3eb"/>
    <path fill="#4f6f52" d="M40 8c-16.8 0-30.4 13.6-30.4 30.4C9.6 60.3 40 77.6 40 77.6s30.4-17.3 30.4-39.2C70.4 21.6 56.8 8 40 8Zm0 52.7c-10.3 0-18.4-8.3-18.4-18.4 0-10.3 8.3-18.4 18.4-18.4s18.4 8.1 18.4 18.4S50.3 60.7 40 60.7Z"/>
    <circle cx="40" cy="42.3" r="10.4" fill="#f0b84f"/>
  </g>
  <g fill="#263628" font-family="Inter, Arial, sans-serif">
    <text x="124" y="54" font-size="29" font-weight="800">Shepherd</text>
    <text x="124" y="84" font-size="29" font-weight="800" fill="#4f6f52">Route</text>
  </g>
</svg>
